<svg width="1728" height="1238" viewBox="0 0 1728 1238" fill="none" xmlns="http://www.w3.org/2000/svg">
<g opacity="0.05">
<path d="M1603.39 76.4567C1626.15 76.4567 1644.6 58.2542 1644.6 35.8004C1644.6 13.3466 1626.15 -4.85583 1603.39 -4.85583C1580.64 -4.85583 1562.19 13.3466 1562.19 35.8004C1562.19 58.2542 1580.64 76.4567 1603.39 76.4567Z" stroke="#CFCFAF" stroke-width="30" stroke-linejoin="round"/>
<path d="M1583.88 1043.53V969.758C1583.88 946.148 1575.56 924.3 1561.45 906.503M1345.31 969.758C1345.31 909.907 1398.71 861.393 1464.59 861.393C1487.47 861.393 1508.84 867.241 1526.99 877.386L1345.31 969.758Z" stroke="#D55954" stroke-width="30" stroke-linejoin="round"/>
<path d="M1630.5 219.567H1670.13C1696.76 219.567 1718.34 198.937 1718.34 173.49C1718.34 148.042 1696.76 127.413 1670.13 127.413H1590.87C1564.25 127.413 1542.67 148.042 1542.67 173.49" stroke="#D55954" stroke-width="30" stroke-linejoin="round"/>
<path d="M1039.52 -84H965.729C942.115 -84 920.262 -75.6911 902.462 -61.5855M965.729 154.517C905.867 154.517 857.344 101.123 857.344 35.2583C857.344 12.3879 863.192 -8.97929 873.339 -27.1295L965.729 154.517Z" stroke="#CFCFAF" stroke-width="30" stroke-linejoin="round"/>
<path d="M1265.61 1130.27H1262.21C1238.04 1130.27 1218.44 1149.93 1218.44 1174.18C1218.44 1198.42 1238.04 1218.08 1262.21 1218.08H1363.35C1387.52 1218.08 1407.12 1198.42 1407.12 1174.18C1407.12 1149.93 1387.52 1130.27 1363.35 1130.27H1359.95" stroke="#05203D" stroke-width="30" stroke-linejoin="round"/>
<path d="M882.284 1222.42C854.134 1222.42 831.319 1199.61 831.319 1171.46C831.319 1143.32 854.134 1120.51 882.284 1120.51" stroke="#1B998B" stroke-width="30" stroke-linejoin="round"/>
<path d="M1316.65 163.19C1340.26 163.19 1359.41 144.259 1359.41 120.907C1359.41 97.5556 1340.26 78.625 1316.65 78.625H1268.32" stroke="#D55954" stroke-width="30" stroke-linejoin="round"/>
<path d="M1490.62 1222.42V1057.54C1490.62 1025.25 1464.4 999.082 1432.06 999.082C1399.72 999.082 1373.51 1025.25 1373.51 1057.54V1083.06" stroke="#1B998B" stroke-width="30" stroke-linejoin="round"/>
<path d="M535.284 22.7904V-40.4678C535.284 -58.5223 549.852 -73.1583 567.816 -73.1583C585.78 -73.1583 600.347 -58.5223 600.347 -40.4678V86.0487C600.347 104.103 585.78 118.739 567.816 118.739C549.852 118.739 535.284 104.103 535.284 86.0487V70.7648" stroke="#D55954" stroke-width="30" stroke-linejoin="round"/>
<path d="M474.559 -63.4008V101.207C474.559 150.409 514.612 190.294 564.02 190.294C613.428 190.294 653.481 150.409 653.481 101.207V62.3161" stroke="#1B998B" stroke-width="30" stroke-linejoin="round"/>
<path d="M1112.17 -16.7817H1307.34C1381.61 -16.7817 1441.82 43.6506 1441.82 118.197C1441.82 192.744 1381.61 253.176 1307.34 253.176H1248.62" stroke="#1B998B" stroke-width="30" stroke-linejoin="round"/>
<path d="M1635.93 258.597V347.511C1635.93 385.825 1604.57 416.885 1565.89 416.885H1511.22" stroke="#05203D" stroke-width="30" stroke-linejoin="round"/>
<path d="M288.047 312.805V372.427C288.047 415.542 323.002 450.494 366.122 450.494" stroke="#1B998B" stroke-width="30" stroke-linejoin="round"/>
<path d="M167.681 734.546V641.221C167.681 587.485 209.799 542.472 266.359 530.723" stroke="#D55954" stroke-width="30" stroke-linejoin="round"/>
<path d="M1245.01 398.996H1359.2C1424.96 398.996 1480.04 450.361 1494.41 519.339" stroke="#05203D" stroke-width="30"/>
<path d="M1478.69 269.764C1478.69 241.442 1501.75 218.483 1530.2 218.483C1558.64 218.483 1581.71 241.442 1581.71 269.764V307.059C1581.71 335.381 1558.64 358.34 1530.2 358.34C1501.75 358.34 1478.69 335.381 1478.69 307.059V269.764Z" stroke="#1B998B" stroke-width="30" stroke-linejoin="round"/>
<path d="M410.58 320.394L410.581 102.691C410.581 60.0603 376.111 25.5009 333.591 25.5009" stroke="#D55954" stroke-width="30" stroke-linejoin="round"/>
<path d="M1139.28 190.294C1158.45 190.294 1173.98 174.761 1173.98 155.601C1173.98 136.44 1158.45 120.908 1139.28 120.908C1120.12 120.908 1104.58 136.44 1104.58 155.601C1104.58 174.761 1120.12 190.294 1139.28 190.294Z" stroke="#1B998B" stroke-width="30" stroke-linejoin="round"/>
<path d="M1139.28 253.176C1194.38 253.176 1239.04 209.247 1239.04 155.059C1239.04 100.87 1194.38 56.9417 1139.28 56.9417C1084.19 56.9417 1039.52 100.87 1039.52 155.059" stroke="#D55954" stroke-width="30" stroke-linejoin="round"/>
<path d="M970.661 -5.94C948.203 -5.94 929.997 12.262 929.997 34.7162C929.997 57.1705 948.203 75.3725 970.661 75.3725C993.119 75.3725 1011.33 57.1705 1011.33 34.7162V-5.94" stroke="#05203D" stroke-width="30" stroke-linejoin="round"/>
<path d="M810.173 802.586C784.124 802.586 763.003 823.512 763.003 849.332C763.003 875.153 784.124 896.087 810.173 896.087C836.223 896.087 857.344 875.153 857.344 849.332V706.358" stroke="#CFCFAF" stroke-width="30" stroke-linejoin="round"/>
<path d="M626.189 1121.05C626.189 1144.7 645.168 1163.88 668.575 1163.88C691.982 1163.88 710.953 1144.7 710.953 1121.05C710.953 1097.4 691.982 1078.23 668.575 1078.23H526.609" stroke="#D55954" stroke-width="30" stroke-linejoin="round"/>
<path d="M448.309 1137.86H556.113C578.149 1137.86 596.009 1155.81 596.009 1177.97C596.009 1200.13 578.149 1218.08 556.113 1218.08H448.309C426.275 1218.08 408.412 1200.13 408.412 1177.97C408.412 1155.81 426.275 1137.86 448.309 1137.86Z" stroke="#CFCFAF" stroke-width="30" stroke-linejoin="round"/>
<path d="M247.925 205.473C247.925 259.362 204.231 303.047 150.331 303.047C96.4315 303.047 52.7375 259.362 52.7375 205.473" stroke="#D55954" stroke-width="30" stroke-linejoin="round"/>
<path d="M332.506 254.26V135.004C332.506 111.65 313.572 92.7192 290.216 92.7192C266.859 92.7192 247.925 111.65 247.925 135.004V153.463" stroke="#05203D" stroke-width="30" stroke-linejoin="round"/>
<path d="M82.0156 410.38C98.1855 410.38 111.294 397.517 111.294 381.65C111.294 365.782 98.1855 352.919 82.0156 352.919C65.8457 352.919 52.7375 365.782 52.7375 381.65C52.7375 397.517 65.8457 410.38 82.0156 410.38Z" stroke="#05203D" stroke-width="30" stroke-linejoin="round"/>
<path d="M106.956 187.286V67.5394C106.956 44.3222 125.89 25.5009 149.247 25.5009C172.603 25.5009 191.538 44.3222 191.538 67.5394V187.286C191.538 210.503 172.603 229.324 149.247 229.324C125.89 229.324 106.956 210.503 106.956 187.286Z" stroke="#CFCFAF" stroke-width="30" stroke-linejoin="round"/>
<path d="M1075.3 254.26H979.797C919.357 254.26 870.356 303.285 870.356 363.761" stroke="#D55954" stroke-width="30" stroke-linejoin="round"/>
<path d="M1170.19 464.588C1146.53 464.588 1127.35 483.519 1127.35 506.871C1127.35 530.223 1146.53 549.153 1170.19 549.153C1193.84 549.153 1213.02 530.223 1213.02 506.871V464.588" stroke="#D55954" stroke-width="30" stroke-linejoin="round"/>
<path d="M1432.06 664.893C1432.06 725.515 1481.83 774.66 1543.21 774.66C1604.59 774.66 1654.36 725.515 1654.36 664.893V546.985" stroke="#1B998B" stroke-width="30" stroke-linejoin="round"/>
<path d="M1374.18 716.115H1368.66C1337.2 716.115 1311.7 690.632 1311.7 659.196C1311.7 627.761 1337.2 602.277 1368.66 602.277H1542.09C1573.55 602.277 1599.06 627.761 1599.06 659.196C1599.06 690.632 1573.55 716.115 1542.09 716.115H1540.39" stroke="#05203D" stroke-width="30" stroke-linejoin="round"/>
<path d="M1268.32 464.588H1338.3C1385.29 464.588 1423.39 502.45 1423.39 549.153" stroke="#1B998B" stroke-width="30" stroke-linejoin="round"/>
<path d="M542.875 891.75C565.633 891.75 584.081 873.548 584.081 851.094C584.081 828.64 565.633 810.438 542.875 810.438C520.117 810.438 501.669 828.64 501.669 851.094C501.669 873.548 520.117 891.75 542.875 891.75Z" stroke="#05203D" stroke-width="30" stroke-linejoin="round"/>
<path d="M442.466 827.264C427.346 883.775 460.051 941.649 515.506 956.536C570.96 971.422 628.168 937.676 643.285 881.166C658.402 824.655 625.7 766.78 570.245 751.893" stroke="#CFCFAF" stroke-width="30" stroke-linejoin="round"/>
<path d="M517.564 751.461H316.673C277.958 751.44 246.558 719.455 246.54 680.014C246.522 640.574 277.89 608.616 316.605 608.635C355.319 608.655 386.721 640.64 386.737 680.081H321.329" stroke="#05203D" stroke-width="30"/>
<path d="M513.055 519.881C513.055 529.593 513.055 651.859 513.055 711.778" stroke="#1B998B" stroke-width="30" stroke-linejoin="round"/>
<path d="M143.846 1121.59C126.467 1121.59 112.378 1107.76 112.378 1090.69C112.378 1073.63 126.467 1059.8 143.846 1059.8H177.441" stroke="#CFCFAF" stroke-width="30" stroke-linejoin="round"/>
<path d="M-44.314 1168.21C-19.4604 1168.21 0.687515 1148.31 0.687515 1123.76C0.687515 1099.21 -19.4604 1079.31 -44.314 1079.31C-69.1677 1079.31 -89.3156 1099.21 -89.3156 1123.76C-89.3156 1148.31 -69.1677 1168.21 -44.314 1168.21Z" stroke="#D55954" stroke-width="30" stroke-linejoin="round"/>
<path d="M50.5687 1122.68C50.5687 1067.59 6.63188 1022.93 -47.5672 1022.93C-101.766 1022.93 -145.703 1067.59 -145.703 1122.68C-145.703 1177.76 -101.766 1222.42 -47.5672 1222.42" stroke="#05203D" stroke-width="30" stroke-linejoin="round"/>
<path d="M217.562 1059.8H258.666C286.271 1059.8 308.65 1038.44 308.65 1012.09C308.65 985.745 286.271 964.389 258.666 964.389H176.459C148.854 964.389 126.475 985.745 126.475 1012.09" stroke="#05203D" stroke-width="30" stroke-linejoin="round"/>
<path d="M51.6531 991.493C51.6531 941.201 92.2573 900.423 142.346 900.423H302.144" stroke="#05203D" stroke-width="30" stroke-linejoin="round"/>
<path d="M0.145325 900.423C0.145325 905.029 0.145325 963.051 0.145325 991.493" stroke="#D55954" stroke-width="30" stroke-linejoin="round"/>
<path d="M453.414 628.298C453.414 632.303 453.414 682.729 453.414 707.442" stroke="#D55954" stroke-width="30" stroke-linejoin="round"/>
<path d="M578.751 404.417C578.751 429.266 558.829 449.41 534.246 449.41C509.663 449.41 489.741 429.266 489.741 404.417C489.741 379.568 509.663 359.424 534.246 359.424H677.337" stroke="#D55954" stroke-width="30" stroke-linejoin="round"/>
<path d="M734.809 500.908V437.65C734.809 419.595 749.377 404.959 767.341 404.959C785.305 404.959 799.872 419.595 799.872 437.65V564.166C799.872 582.221 785.305 596.857 767.341 596.857C749.377 596.857 734.809 582.221 734.809 564.166V548.882" stroke="#CFCFAF" stroke-width="30" stroke-linejoin="round"/>
<path d="M678.422 404.959V569.567C678.422 618.769 718.475 658.654 767.883 658.654C817.291 658.654 857.344 618.769 857.344 569.567V530.676" stroke="#1B998B" stroke-width="30" stroke-linejoin="round"/>
<path d="M692.519 258.597H645.56C611.606 258.597 584.081 286.264 584.081 320.394" stroke="#05203D" stroke-width="30" stroke-linejoin="round"/>
<path d="M734.267 211.978C734.267 218.559 734.267 318.825 734.267 359.424" stroke="#D55954" stroke-width="30" stroke-linejoin="round"/>
<path d="M1003.73 452.824V467.117C1003.73 487.276 987.282 503.618 967.001 503.618C946.71 503.618 930.258 487.276 930.258 467.117V455.278C930.258 435.271 913.934 419.053 893.805 419.053C873.668 419.053 857.344 435.271 857.344 455.278V469.848" stroke="#1B998B" stroke-width="30" stroke-linejoin="round"/>
<path d="M-53.5312 645.513C-53.5312 616.845 -30.2274 593.604 -1.48125 593.604C27.2649 593.604 50.5688 616.845 50.5688 645.513V767.202C50.5688 795.871 27.2649 819.111 -1.48125 819.111C-30.2274 819.111 -53.5312 795.871 -53.5312 767.202V645.513Z" stroke="#1B998B" stroke-width="30" stroke-linejoin="round"/>
<path d="M929.997 881.382C929.997 857.772 948.929 838.626 972.288 838.626C995.646 838.626 1014.58 857.772 1014.58 881.382V929.696" stroke="#D55954" stroke-width="30" stroke-linejoin="round"/>
<path d="M1104.04 858.141C1128.89 858.141 1149.04 838.239 1149.04 813.69C1149.04 789.14 1128.89 769.239 1104.04 769.239C1079.19 769.239 1059.04 789.14 1059.04 813.69C1059.04 838.239 1079.19 858.141 1104.04 858.141Z" stroke="#D55954" stroke-width="30" stroke-linejoin="round"/>
<path d="M1016.46 1010.47C1016.46 1032.92 998.314 1051.12 975.938 1051.12C953.563 1051.12 935.419 1032.92 935.419 1010.47C935.419 988.012 953.563 969.81 975.938 969.81H1127.35" stroke="#CFCFAF" stroke-width="30" stroke-linejoin="round"/>
<path d="M965.781 710.694H1113.43C1169.63 710.694 1215.19 756.325 1215.19 812.606C1215.19 868.887 1169.63 914.518 1113.43 914.518H1069.02" stroke="#05203D" stroke-width="30" stroke-linejoin="round"/>
<path d="M1180.49 969.81H1227.27C1274.5 969.81 1312.78 1008.25 1312.78 1055.67V1143.28" stroke="#CFCFAF" stroke-width="30" stroke-linejoin="round"/>
<path d="M1226.03 1084.73C1242.2 1084.73 1255.31 1071.87 1255.31 1056C1255.31 1040.13 1242.2 1027.27 1226.03 1027.27C1209.86 1027.27 1196.75 1040.13 1196.75 1056C1196.75 1071.87 1209.86 1084.73 1226.03 1084.73Z" stroke="#05203D" stroke-width="30" stroke-linejoin="round"/>
<path d="M1067.14 1153.03C1067.16 1163.88 1067.18 1174.72 1067.2 1185.56" stroke="#1B998B" stroke-width="30" stroke-linejoin="round"/>
<path d="M1067.14 1089.07C1067.16 1099.91 1067.18 1110.75 1067.2 1121.59" stroke="#CFCFAF" stroke-width="30" stroke-linejoin="round"/>
<path d="M864.361 1033.78C864.382 1044.62 864.403 1055.46 864.423 1066.3" stroke="#1B998B" stroke-width="30" stroke-linejoin="round"/>
<path d="M864.361 969.81C864.382 980.652 864.403 991.493 864.423 1002.33" stroke="#D55954" stroke-width="30" stroke-linejoin="round"/>
<path d="M799.299 969.81C799.319 980.652 799.34 991.493 799.361 1002.33" stroke="#CFCFAF" stroke-width="30" stroke-linejoin="round"/>
<path d="M348.199 884.161C348.219 895.002 348.24 905.844 348.261 916.686" stroke="#05203D" stroke-width="30" stroke-linejoin="round"/>
<path d="M14.2112 468.925C14.2318 479.767 14.2525 490.608 14.2731 501.45" stroke="#D55954" stroke-width="30" stroke-linejoin="round"/>
<path d="M410.008 433.148C410.029 443.989 410.049 454.831 410.07 465.672" stroke="#1B998B" stroke-width="30" stroke-linejoin="round"/>
<path d="M733.152 89.4667C733.173 100.308 733.193 111.15 733.214 121.992" stroke="#1B998B" stroke-width="30" stroke-linejoin="round"/>
<path d="M733.152 27.6692C733.173 38.5109 733.193 49.3525 733.214 60.1942" stroke="#05203D" stroke-width="30" stroke-linejoin="round"/>
<path d="M1089.91 606.614C1089.93 617.456 1089.95 628.297 1089.97 639.139" stroke="#05203D" stroke-width="30" stroke-linejoin="round"/>
<path d="M1166.9 606.614C1166.92 617.456 1166.94 628.297 1166.96 639.139" stroke="#05203D" stroke-width="30" stroke-linejoin="round"/>
<path d="M1243.89 606.614C1243.91 617.456 1243.93 628.297 1243.95 639.139" stroke="#05203D" stroke-width="30" stroke-linejoin="round"/>
</g>
</svg>
